# xmcd
#
# Track frame offsets: 
#        150
#        26252
#        44522
#        63059
#        87206
#        115355
#        134573
#        160002
#        188390
#        214077
#        234038
#        255299
#        281080
#
# Disc length: 4004 seconds
#
# Revision: 0
# Processed by: cddbd v1.5.2PL0 Copyright (c) Steve Scherf et al.
# Submitted via: ExactAudioCopy v1.3
#
DISCID=a10fa20d
DTITLE=Gregg A. Smith - The Real Deal
DYEAR=2019
DGENRE=Blues
TTITLE0=Wouldn’t Treat a Dog (The Way You Treated Me)
TTITLE1=Jumpin At the Juke Joint
TTITLE2=Living On the Dark Side of Love
TTITLE3=Home To You
TTITLE4=Don’t Cry No More
TTITLE5=I Still Love You
TTITLE6=Quiet As It’s Kept
TTITLE7=Party Warrior
TTITLE8=Having a Party
TTITLE9=Teasin Woman
TTITLE10=Cadillac Problems
TTITLE11=Everybody Ought To Praise His Name
TTITLE12=Don’t Cry No More (Party Remix)
EXTD=
EXTT0=
EXTT1=
EXTT2=
EXTT3=
EXTT4=
EXTT5=
EXTT6=
EXTT7=
EXTT8=
EXTT9=
EXTT10=
EXTT11=
EXTT12=
PLAYORDER=
